<svg width="291" height="98" viewBox="0 0 291 98" fill="none" xmlns="http://www.w3.org/2000/svg">
<path d="M127.527 39.0361C127.527 40.1058 128.885 40.5241 133.855 40.5241C139.326 40.5241 140.016 40.1676 140.016 39.4955C140.016 38.7823 139.641 38.4258 133.063 38.2166C124.189 37.9217 121.827 36.4542 121.827 33.2038C121.827 29.7408 124.96 27.9373 133.439 27.9373C142.46 27.9373 145.3 29.0687 145.3 32.7203C145.3 33.0358 145.3 33.3512 145.279 33.7078C144.655 33.6667 143.545 33.6461 142.48 33.6461C141.374 33.6461 140.265 33.6667 139.641 33.7078V33.3101C139.641 32.2403 138.89 31.8837 133.353 31.8837C128.257 31.8837 127.507 32.1992 127.507 32.8266C127.507 33.4541 127.902 33.7284 134.9 34.085C143.19 34.5033 145.736 35.7205 145.736 39.2452C145.736 42.9174 142.835 44.6798 133.917 44.6798C124.81 44.6798 121.701 43.1471 121.701 39.9584C121.701 39.5812 121.721 39.1835 121.786 38.7618C122.516 38.8441 123.622 38.9092 124.667 38.9092C125.732 38.9092 126.735 38.8886 127.527 38.8475V39.0361Z" fill="white"></path>
<path d="M173.135 44.1759C173.217 41.93 173.282 39.7494 173.302 37.147C173.302 36.0772 173.387 34.9217 173.449 33.8108L173.302 33.7697C172.78 34.8189 172.196 35.9092 171.486 36.8315L165.974 44.1724H163.114L156.932 35.9058C156.243 34.9834 155.639 33.8931 155.117 32.8851L154.97 32.9262C155.031 34.0165 155.117 35.1069 155.137 36.3035C155.157 39.2419 155.222 41.6935 155.345 44.169H149.748C149.874 41.9026 149.915 39.6157 149.915 36.2829C149.915 32.8439 149.874 30.4918 149.809 28.438H158.205C159.356 30.1386 161.066 32.6965 163.216 35.8235C163.779 36.6224 164.387 37.5241 164.97 38.4465H165.097C165.66 37.5036 166.203 36.6018 166.725 35.8235C168.728 32.8233 170.609 30.0975 171.735 28.438H179.149C179.087 30.4952 179.023 32.8439 179.023 36.2829C179.023 39.6191 179.043 41.906 179.19 44.169H173.135V44.1759Z" fill="white"></path>
<path d="M203.304 44.1756C203.116 43.7127 202.614 42.6875 201.925 41.4052C199.754 41.3846 197.559 41.3846 195.89 41.3846C194.365 41.3846 192.132 41.3846 190.023 41.4052C189.313 42.6018 188.75 43.6064 188.477 44.1756H181.606C184.593 40.0234 190.378 31.2116 191.733 28.4412H200.42C201.839 31.2116 207.625 39.9171 210.734 44.1756H203.304ZM194.597 33.8757C193.887 35.0072 193.071 36.3307 192.279 37.6507C193.593 37.6713 194.911 37.6713 195.914 37.6713C197 37.6713 198.419 37.6713 199.839 37.6507C199.068 36.3067 198.252 34.966 197.522 33.8311C196.873 32.8471 196.416 32.0276 196.061 31.3762L194.597 33.8757Z" fill="white"></path>
<path d="M230.948 37.7367C234.603 38.0933 236.272 38.6796 236.941 41.0728C237.317 42.4375 237.651 43.5689 237.924 44.1793H232.726C231.787 44.1793 231.62 43.9701 231.098 41.9129C230.637 40.0682 229.947 39.7322 226.149 39.7322H218.674C218.715 41.5151 218.8 43.0478 218.923 44.1793H212.95C212.991 41.8923 213.032 39.691 213.032 36.3137C213.032 32.9776 213.011 30.7112 212.95 28.4482H228.487C234.146 28.4482 236.798 29.9363 236.798 33.125C236.798 35.8303 235.043 37.2155 230.951 37.6578V37.7367H230.948ZM226.667 35.8063C230.029 35.8063 231.241 35.2406 231.241 34.0851C231.241 32.8884 230.05 32.4907 226.729 32.4907C225.142 32.4907 220.694 32.5113 218.585 32.5764C218.585 33.6462 218.585 34.716 218.605 35.7446C220.111 35.8063 223.305 35.8063 226.667 35.8063Z" fill="white"></path>
<path d="M261.37 28.4412C261.329 29.0515 261.329 29.9738 261.329 30.7898C261.329 31.5887 261.329 32.5728 261.37 33.2448C258.469 33.1625 255.584 33.1625 253.079 33.1625C253.079 38.4291 253.1 42.979 253.161 44.1962C252.39 44.1345 251.093 44.1345 250.215 44.1345C249.338 44.1345 248.106 44.1345 247.27 44.1962C247.331 42.979 247.376 38.4496 247.376 33.1625C244.87 33.1625 241.986 33.1625 239.085 33.2448C239.105 32.5728 239.105 31.6093 239.105 30.7898C239.105 29.9704 239.105 29.0686 239.085 28.4412H261.37Z" fill="white"></path>
<path d="M134.941 70.0592C125.21 70.0592 121.22 66.5756 121.22 61.436C121.22 56.0872 125.626 52.8984 134.941 52.8984C144.255 52.8984 148.662 56.0872 148.662 61.436C148.662 66.5756 144.672 70.0592 134.941 70.0592ZM142.795 61.46C142.795 58.8781 140.771 57.4518 134.941 57.4518C129.114 57.4518 127.087 58.8781 127.087 61.46C127.087 63.9972 129.091 65.5093 134.941 65.5093C140.812 65.5059 142.795 63.9972 142.795 61.46Z" fill="white"></path>
<path d="M170.417 62.9068C174.073 63.2634 175.742 63.8497 176.411 66.243C176.786 67.6076 177.121 68.7391 177.394 69.3494H172.196C171.257 69.3494 171.09 69.1403 170.568 67.083C170.107 65.2384 169.417 64.9024 165.618 64.9024H158.143C158.184 66.6853 158.27 68.218 158.393 69.3494H152.419C152.46 67.0625 152.501 64.8612 152.501 61.4839C152.501 58.1478 152.481 55.8814 152.419 53.6184H167.956C173.615 53.6184 176.268 55.1065 176.268 58.2952C176.268 61.0005 174.513 62.3857 170.421 62.828V62.9068H170.417ZM166.137 60.9765C169.499 60.9765 170.711 60.4107 170.711 59.2552C170.711 58.0586 169.52 57.6609 166.199 57.6609C164.611 57.6609 160.164 57.6815 158.055 57.7466C158.055 58.8164 158.055 59.8861 158.075 60.9148C159.577 60.9765 162.775 60.9765 166.137 60.9765Z" fill="white"></path>
<path d="M199.649 69.346C199.461 68.8831 198.959 67.8579 198.27 66.5756C196.099 66.555 193.905 66.555 192.235 66.555C190.71 66.555 188.478 66.555 186.368 66.5756C185.658 67.7722 185.095 68.7768 184.822 69.346H177.951C180.938 65.1938 186.723 56.382 188.078 53.6116H196.765C198.185 56.382 203.97 65.0875 207.079 69.346H199.649ZM190.942 59.0461C190.232 60.1776 189.416 61.5011 188.624 62.8211C189.938 62.8417 191.256 62.8417 192.259 62.8417C193.345 62.8417 194.765 62.8417 196.185 62.8211C195.413 61.4771 194.597 60.1364 193.867 59.0015C193.218 58.0175 192.761 57.198 192.406 56.5466L190.942 59.0461Z" fill="white"></path>
<path d="M234.435 53.6116C234.374 55.542 234.353 58.1204 234.353 61.4565C234.353 64.9195 234.353 67.2476 234.394 69.3426H228.442C227.21 67.9368 220.714 63.4897 217.124 60.9731C216.246 60.3422 215.349 59.7147 214.618 59.0427C214.7 60.301 214.724 61.5594 214.765 62.8383C214.786 66.0887 214.806 68.3757 214.871 69.3426H209.502C209.502 67.2236 209.563 64.8338 209.563 61.4771C209.563 58.1409 209.563 55.7511 209.502 53.6116H216.311C217.083 54.6196 224.247 59.7387 227.442 61.94C228.193 62.444 228.947 62.8417 229.51 63.3869C229.428 62.2348 229.384 61.1205 229.384 60.2599C229.384 57.3455 229.322 54.7225 229.237 53.6082H234.435V53.6116Z" fill="white"></path>
<path d="M252.099 69.8499C243.307 69.8499 238.19 67.3127 238.19 61.3741C238.19 55.1235 243.515 53.1074 251.785 53.1074C259.68 53.1074 264.564 54.4069 264.564 59.1077C264.564 59.2551 264.564 59.4231 264.544 59.5706C263.919 59.5294 262.81 59.5089 261.745 59.5089C260.598 59.5089 259.509 59.5294 258.864 59.5706C258.864 59.4849 258.885 59.4026 258.885 59.3203C258.885 57.8528 256.902 57.3899 251.765 57.3899C246.334 57.3899 244.082 58.5008 244.082 61.4804C244.082 64.1856 246.191 65.6326 252.099 65.6326C256.506 65.6326 258.448 64.9605 259.011 63.5342C256.11 63.5342 252.202 63.5548 249.614 63.6199C249.635 63.3045 249.635 62.6324 249.635 62.3204C249.635 61.7547 249.635 61.2507 249.614 60.8529C252.997 60.9146 256.465 60.8941 258.991 60.8941C260.537 60.8941 262.52 60.9146 264.588 60.8529C264.964 66.5138 263.544 69.8499 252.099 69.8499Z" fill="white"></path>
<path d="M290.999 53.6116C290.979 54.0745 290.958 54.8082 290.958 55.4562C290.958 56.1283 290.958 56.8826 290.999 57.3249C286.654 57.3043 278.804 57.2837 274.899 57.2837V59.6976C279.411 59.6976 287.282 59.6976 290.77 59.6358C290.75 60.4553 290.729 62.132 290.75 63.0132C287.326 62.972 279.367 62.9309 274.899 62.9309V65.3858C278.804 65.3858 286.927 65.3653 290.999 65.3447C290.958 65.8487 290.958 66.6442 290.958 67.3814C290.958 68.0534 290.958 68.8283 290.999 69.3529H268.926C269.011 67.2133 269.011 64.8441 269.011 61.4874C269.011 58.1512 269.011 55.7374 268.926 53.6219H290.999V53.6116Z" fill="white"></path>
<path d="M25.8926 90.0108C24.7219 90.0108 23.6194 89.8771 22.5921 89.6028C19.0662 88.6633 16.6155 86.0952 15.4926 82.1659C6.55338 75.2604 1.23901 65.5023 0.529064 54.6743C-0.249148 42.8521 4.41671 31.2458 13.6597 21.9917L14.2706 21.3813L14.4993 22.218C18.0525 35.1786 36.477 57.6265 55.5705 72.2603L56.0279 72.61L55.6183 73.018C44.8496 83.798 33.8488 90.0108 25.8926 90.0108ZM13.7757 23.3152C5.13348 32.2573 0.791881 43.3389 1.53255 54.6092C2.22884 65.1971 7.45105 74.7358 16.2332 81.4664L16.3698 81.5693L16.4141 81.7339C17.4313 85.4403 19.5953 87.7582 22.8515 88.6256C23.814 88.8828 24.8516 89.0097 25.9472 89.0097C33.5075 89.0097 44.0509 83.0539 54.5021 72.7095C35.8251 58.2642 17.8716 36.4575 13.7757 23.3152Z" fill="#FF3300"></path>
<path d="M23.3838 89.7264C13.6357 82.2552 4.21522 70.745 2.38574 64.0658L3.35509 63.7983C5.13679 70.2958 14.3968 81.566 23.9948 88.9241L23.3838 89.7264Z" fill="#FF3300"></path>
<path d="M37.4979 86.4244C20.8722 73.6833 4.81304 54.0743 1.69678 42.715L2.66613 42.4475C5.73119 53.6252 21.6299 72.9941 38.1055 85.6221L37.4979 86.4244Z" fill="#FF3300"></path>
<path d="M15.7382 82.3339C10.5638 80.1943 7.28367 76.3302 6.25971 71.1631C4.37903 61.6792 10.1439 49.1232 21.6806 37.5752L22.3905 38.2918C11.0928 49.5998 5.43371 61.8129 7.24612 70.9642C8.20182 75.785 11.2703 79.3954 16.1205 81.4013L15.7382 82.3339Z" fill="#FF3300"></path>
<path d="M14.1409 83.1122C13.8678 83.1122 13.6426 83.023 13.4753 82.807C13.1306 82.3578 12.5538 81.6035 19.0628 74.0603C23.2303 69.2327 29.2546 62.8552 36.4804 55.624L37.1903 56.3406C21.1004 72.4419 14.8611 80.3383 14.3525 82.0698C14.5641 82.0081 14.9635 81.8504 15.6768 81.4321L16.182 82.3064C15.4379 82.7384 14.6973 83.1122 14.1409 83.1122Z" fill="#FF3300"></path>
<path d="M45.0987 91.7904C39.9072 91.7904 34.7601 91.0498 29.8826 89.5515C27.1862 90.1378 24.7287 90.1721 22.592 89.6029C19.0184 88.6497 16.5472 86.0233 15.4448 82.0014L15.0488 80.5579L16.2332 81.4665C20.3632 84.6312 25.0154 86.9765 29.9509 88.5228C37.1187 86.8805 46.0613 81.1579 54.9083 72.3049L55.2189 71.9929L55.5671 72.2604C63.5881 78.4046 69.3428 81.4802 73.4045 82.9237C76.9235 80.7945 80.2173 78.2435 83.1799 75.2776L83.7909 74.6673L84.0196 75.5039C85.4975 80.8973 84.0537 83.2186 82.5792 84.2163C80.6439 85.5295 77.5208 85.4301 73.5069 84.0346C64.8544 89.1606 54.8912 91.7904 45.0987 91.7904ZM31.7906 89.0543C44.969 92.6133 59.9223 90.6521 72.2918 83.5786C67.5816 81.7237 61.7791 78.2504 55.3111 73.3267C47.1023 81.4734 38.7809 86.9559 31.7906 89.0543ZM16.9124 83.2186C18.0627 86.0644 20.0526 87.8817 22.848 88.6257C24.3567 89.0269 26.0462 89.1091 27.8757 88.8863C23.988 87.5011 20.2949 85.6153 16.9124 83.2186ZM74.6606 83.3352C79.3981 84.7547 81.4563 83.7638 82.0229 83.3763C83.9718 82.0528 83.8421 79.1178 83.2653 76.608C80.62 79.1693 77.729 81.4116 74.6606 83.3352Z" fill="#FF3300"></path>
<path d="M35.7264 95.8636C32.972 95.8636 28.5792 93.7069 23.3843 89.7261L23.9952 88.9238C31.3848 94.5846 35.6479 95.4795 37.0542 94.5264C38.0269 93.8646 37.8222 92.2223 37.474 90.9605L38.4434 90.693C39.2284 93.5595 38.4263 94.8144 37.6174 95.363C37.1224 95.699 36.4876 95.8636 35.7264 95.8636Z" fill="#FF3300"></path>
<path d="M58.3557 96.8649C53.7547 96.8649 46.3275 93.1927 37.4941 86.4244L38.1051 85.6221C48.6314 93.6899 57.5672 97.458 60.8644 95.2191C62.7075 93.971 62.3526 90.9983 61.7279 88.7251L62.6973 88.4576C63.9841 93.155 62.7178 95.1814 61.4276 96.0557C60.6289 96.5974 59.5947 96.8649 58.3557 96.8649Z" fill="#FF3300"></path>
<path d="M42.5044 96.7071C41.4667 96.7071 40.4291 96.6591 39.3983 96.5631C29.7253 95.658 21.2435 90.5389 15.5161 82.1522L16.3455 81.5796C21.9022 89.716 30.1246 94.6773 39.4939 95.5551C50.5663 96.594 62.2566 91.8383 71.5746 82.5156L72.2846 83.2322C63.6185 91.9035 52.9215 96.7071 42.5044 96.7071Z" fill="#FF3300"></path>
<path d="M50.5357 97.4788C50.348 97.4788 50.1603 97.4788 49.9725 97.4754C37.0092 97.3211 24.7899 91.9003 15.564 82.2141L16.291 81.5146C25.3257 91.002 37.2925 96.3096 49.9828 96.4639C50.1671 96.4674 50.3514 96.4674 50.5357 96.4674C62.3454 96.4674 73.3974 91.9037 81.712 83.5822L82.4219 84.2988C73.9196 92.8123 62.6151 97.4788 50.5357 97.4788Z" fill="#FF3300"></path>
<path d="M45.0986 91.7903C34.4426 91.7903 23.9845 88.6736 15.6256 82.2688L15.489 82.1659L15.4447 82.0013C11.8232 68.7938 23.708 43.2086 41.9346 24.9644L42.2452 24.6523L42.5933 24.9198C61.837 39.6668 80.4219 62.3547 84.0229 75.497L84.1014 75.7816L83.8932 75.9907C73.5034 86.3901 59.1269 91.7903 45.0986 91.7903ZM16.3696 81.5693C35.2788 95.9391 65.0523 93.2098 82.975 75.4833C79.258 62.5604 61.1612 40.5239 42.3339 25.993C24.5852 43.9081 12.9974 68.7013 16.3696 81.5693Z" fill="#FF3300"></path>
<path d="M37.4737 90.9606C35.692 84.4631 26.4319 73.1929 16.834 65.8348L17.4449 65.0325C27.1931 72.5037 36.6135 84.014 38.443 90.6931L37.4737 90.9606Z" fill="#FF3300"></path>
<path d="M61.7309 88.7249C58.6658 77.5473 42.7671 58.1784 26.2915 45.5504L26.9025 44.748C43.5282 57.4892 59.5874 77.0981 62.7002 88.4575L61.7309 88.7249Z" fill="#FF3300"></path>
<path d="M26.1042 84.175C22.2678 84.175 18.7556 83.5818 15.7383 82.3337L16.1206 81.4011C30.6984 87.4288 57.1849 77.6912 75.1657 59.6938L75.8757 60.4105C61.3251 74.9688 41.2179 84.175 26.1042 84.175Z" fill="#FF3300"></path>
<path d="M16.1819 82.3029L15.6768 81.4286C22.2301 77.5919 42.2793 59.7453 60.3659 41.6416L61.0759 42.3582C42.9381 60.5133 22.7967 78.4319 16.1819 82.3029Z" fill="#FF3300"></path>
<path d="M16.8099 83.1776L15.6255 82.269C6.60442 75.3566 1.24227 65.5573 0.528907 54.6745C-0.242478 42.9414 4.34488 31.4174 13.4547 22.201C12.1031 17.0099 13.523 14.7538 14.9702 13.7732C19.3118 10.8279 29.6402 14.9938 42.5933 24.9234L43.0507 25.2731L42.6411 25.6812C24.6432 43.6957 12.8779 68.8386 16.4106 81.7341L16.8099 83.1776ZM18.5131 13.9103C16.7792 13.9103 15.8781 14.3732 15.53 14.6064C13.3558 16.0807 13.7688 19.5575 14.4958 22.2147L14.5743 22.4993L14.3661 22.7085C5.33471 31.7535 0.774658 43.082 1.53239 54.6094C2.19797 64.7413 7.01059 73.9131 15.1238 80.5855C12.6765 67.1345 24.1586 42.9551 41.525 25.376C28.9439 15.8133 22.0253 13.9103 18.5131 13.9103Z" fill="#FF3300"></path>
<path d="M16.8342 65.8351C9.44797 60.1742 5.18487 59.2759 3.77521 60.2325C2.80245 60.8942 3.00724 62.5366 3.35539 63.7984L2.38604 64.0658C1.601 61.1994 2.4031 59.9445 3.21203 59.3959C5.49888 57.8461 10.8201 59.9548 17.4451 65.0327L16.8342 65.8351Z" fill="#FF3300"></path>
<path d="M26.292 45.5506C15.7656 37.4828 6.83666 33.7146 3.53268 35.9536C1.68954 37.2016 2.04452 40.1743 2.66913 42.4476L1.69978 42.715C0.413003 38.0211 1.6793 35.9913 2.9695 35.117C6.74451 32.5557 15.6939 36.1559 26.9029 44.7482L26.292 45.5506Z" fill="#FF3300"></path>
<path d="M15.516 82.1522C2.62091 63.2771 7.00007 33.0425 25.2744 14.7502L25.9843 15.4668C8.03427 33.43 3.70973 63.0885 16.342 81.5831L15.516 82.1522Z" fill="#FF3300"></path>
<path d="M15.564 82.2173C-2.98001 62.749 -3.17457 32.0035 15.1305 13.6838L15.8404 14.4004C-2.07893 32.3327 -1.87755 62.4438 16.291 81.5178L15.564 82.2173Z" fill="#FF3300"></path>
<path d="M55.3113 73.3301L54.9631 73.0626C35.7194 58.3157 17.1345 35.6243 13.5302 22.4854L13.4517 22.2009L13.6599 21.9917C31.9444 3.69256 62.5677 0.881005 81.9275 15.7171L82.064 15.82L82.1084 15.9846C85.7298 29.192 73.8484 54.7772 55.6219 73.0181L55.3113 73.3301ZM14.5814 22.4992C18.2984 35.422 36.3952 57.4585 55.2225 71.9895C72.9678 54.0778 84.5556 29.2846 81.1834 16.4166C62.2742 2.04677 32.5008 4.77604 14.5814 22.4992Z" fill="#FF3300"></path>
<path d="M70.6537 53.2377C54.0279 40.4965 37.9688 20.8876 34.856 9.52818L35.8253 9.26074C38.8904 20.4384 54.7891 39.8073 71.2646 52.4353L70.6537 53.2377Z" fill="#FF3300"></path>
<path d="M80.1084 32.9532C70.3603 25.482 60.9398 13.9718 59.1104 7.29259L60.0797 7.02515C61.8614 13.5226 71.1215 24.7928 80.7194 32.1509L80.1084 32.9532Z" fill="#FF3300"></path>
<path d="M22.3911 38.2918L21.6812 37.5752C39.9248 19.3172 66.8994 9.48364 81.8151 15.6519L81.4328 16.5845C66.855 10.5603 40.3719 20.2944 22.3911 38.2918Z" fill="#FF3300"></path>
<path d="M37.1904 56.3408L36.4805 55.6241C54.6183 37.4724 74.7562 19.5539 81.371 15.6829L81.8762 16.5572C75.3228 20.3905 55.277 38.2405 37.1904 56.3408Z" fill="#FF3300"></path>
<path d="M79.0634 85.1421C73.7627 85.1421 65.1785 80.8939 54.9627 73.0627L54.5054 72.713L54.915 72.305C72.9128 54.2938 84.6781 29.151 81.142 16.2555L80.7461 14.812L81.9305 15.7206C90.9516 22.6329 96.3103 32.4323 97.0271 43.3185C97.7985 55.0516 93.2111 66.5721 84.1047 75.7886C85.4563 80.9797 84.0364 83.2358 82.5892 84.2164C81.6677 84.837 80.4833 85.1421 79.0634 85.1421ZM56.0277 72.6067C74.814 86.8839 80.9714 84.0861 82.0227 83.3763C84.1969 81.902 83.7839 78.4252 83.0569 75.768L82.9783 75.4834L83.1866 75.2742C92.2213 66.2327 96.7779 54.9042 96.0236 43.3802C95.3581 33.2483 90.5454 24.073 82.4322 17.4007C84.8795 30.855 73.3975 55.031 56.0277 72.6067Z" fill="#FF3300"></path>
<path d="M91.5115 63.6781C86.9104 63.6781 79.4833 60.006 70.6499 53.2376L71.2609 52.4353C81.7872 60.5031 90.723 64.2713 94.0202 62.0323C95.8633 60.7843 95.5083 57.8116 94.8837 55.5383L95.8531 55.2709C97.1398 59.9648 95.8735 61.9946 94.5833 62.8689C93.7847 63.4141 92.7504 63.6781 91.5115 63.6781Z" fill="#FF3300"></path>
<path d="M92.45 39.0909C89.6922 39.0909 85.3028 36.9376 80.1079 32.9534L80.7189 32.1511C88.105 37.8119 92.3715 38.7103 93.7778 37.7537C94.7505 37.0919 94.5458 35.4496 94.1976 34.1878L95.167 33.9203C95.952 36.7868 95.1499 38.0417 94.341 38.5903C93.846 38.9263 93.2112 39.0909 92.45 39.0909Z" fill="#FF3300"></path>
<path d="M72.2812 83.2323L71.5713 82.5157C89.5179 64.5526 93.8425 34.8941 81.2102 16.4029L82.0396 15.8303C94.9313 34.7089 90.5556 64.9435 72.2812 83.2323Z" fill="#FF3300"></path>
<path d="M82.4256 84.2986L81.7157 83.582C99.6351 65.6498 99.4303 35.5421 81.2617 16.4646L81.9887 15.7651C100.533 35.2403 100.727 65.9823 82.4256 84.2986Z" fill="#FF3300"></path>
<path d="M83.2826 76.6047L83.054 75.7681C79.5008 62.8075 61.0763 40.3596 41.9828 25.7258L41.5254 25.3726L41.935 24.9646C54.2874 12.6006 66.9436 6.24718 74.9612 8.38328C78.4871 9.32275 80.9378 11.8909 82.0641 15.8202C91.0033 22.7257 96.3143 32.4838 97.0276 43.3152C97.8059 55.1375 93.14 66.7403 83.897 75.991L83.2826 76.6047ZM43.0511 25.2766C61.7316 39.7219 79.6817 61.5286 83.781 74.6709C92.4198 65.7322 96.7614 54.654 96.0208 43.3838C95.3245 32.7958 90.1022 23.2571 81.3166 16.5231L81.1801 16.4202L81.1357 16.2556C80.1186 12.5492 77.9546 10.2314 74.6984 9.3639C67.1143 7.33752 55.0212 13.4304 43.0511 25.2766Z" fill="#FF3300"></path>
<path d="M94.8876 55.5387C91.8225 44.361 75.9238 24.9921 59.4482 12.3641L60.0592 11.5618C76.6849 24.3029 92.7441 43.9118 95.8569 55.2712L94.8876 55.5387Z" fill="#FF3300"></path>
<path d="M94.2012 34.1878C92.4195 27.6904 83.1595 16.4201 73.5615 9.06209L74.1725 8.25977C83.9206 15.731 93.3411 27.2412 95.1706 33.9204L94.2012 34.1878Z" fill="#FF3300"></path>
<path d="M75.8765 60.4073L75.1665 59.6907C86.4608 48.3862 92.1233 36.173 90.3075 27.0218C89.3518 22.201 86.2833 18.5905 81.4332 16.5847L81.8154 15.6521C86.9899 17.7916 90.27 21.6558 91.2939 26.8263C93.1746 36.3102 87.4097 48.8662 75.8765 60.4073Z" fill="#FF3300"></path>
<path d="M61.0762 42.3586L60.3662 41.642C76.4527 25.5407 82.692 17.6477 83.2006 15.9162C82.989 15.9779 82.5896 16.1357 81.8763 16.554L81.3711 15.6796C82.4804 15.0316 83.576 14.5207 84.0744 15.1722C84.4191 15.6248 84.9993 16.3791 78.4869 23.9223C74.3228 28.7568 68.3019 35.1274 61.0762 42.3586Z" fill="#FF3300"></path>
<path d="M42.3341 25.9932L41.9826 25.7257C33.9649 19.578 28.2069 16.5059 24.1485 15.0624C20.6295 17.1916 17.3358 19.7426 14.3697 22.7084L13.7587 23.3188L13.53 22.4822C12.0521 17.0888 13.4959 14.7675 14.9704 13.7697C16.9057 12.4565 20.0288 12.556 24.0461 13.9515C37.2928 6.10996 53.5977 4.10758 67.6704 8.43464C70.3668 7.84833 72.8277 7.81404 74.961 8.38321C78.5346 9.3364 81.0058 11.9628 82.1083 15.9847L82.5042 17.4282L81.3198 16.5196C77.1898 13.3549 72.5376 11.0096 67.6021 9.46326C60.4344 11.1056 51.4918 16.8282 42.6481 25.6777L42.3341 25.9932ZM25.2647 14.4041C29.9749 16.259 35.7774 19.7323 42.2454 24.656C50.4507 16.5127 58.7722 11.0302 65.7624 8.93181C52.584 5.37621 37.6341 7.33402 25.2647 14.4041ZM18.5133 13.9103C16.7794 13.9103 15.8783 14.3732 15.5302 14.6064C13.5812 15.9298 13.7109 18.8648 14.2844 21.3747C16.9296 18.8168 19.824 16.571 22.8925 14.6509C21.0528 14.0989 19.6158 13.9103 18.5133 13.9103ZM69.6739 9.09981C73.565 10.485 77.2581 12.3708 80.6406 14.7675C79.4903 11.9217 77.5004 10.1044 74.705 9.3604C73.193 8.95924 71.5034 8.87695 69.6739 9.09981Z" fill="#FF3300"></path>
<path d="M59.4477 12.3638C48.9214 4.29602 39.9856 0.527844 36.6884 2.7668C34.8453 4.01829 35.2003 6.98757 35.8249 9.26082L34.8555 9.52826C33.5688 4.83433 34.8351 2.80452 36.1253 1.93019C39.9003 -0.631067 48.8463 2.9691 60.0587 11.5615L59.4477 12.3638Z" fill="#FF3300"></path>
<path d="M73.5578 9.06197C66.1716 3.40113 61.9051 2.5028 60.4988 3.45942C59.5261 4.12116 59.7309 5.76353 60.079 7.0253L59.1097 7.29274C58.3246 4.42632 59.1267 3.17141 59.9357 2.62281C62.2191 1.07302 67.5403 3.17826 74.1688 8.25964L73.5578 9.06197Z" fill="#FF3300"></path>
<path d="M81.2106 16.4065C75.6504 8.27008 67.428 3.30528 58.0588 2.42753C46.9829 1.39205 35.2961 6.14427 25.9848 15.4636L25.2749 14.747C34.8012 5.21165 46.7849 0.356571 58.1543 1.41948C67.8274 2.32466 76.3092 7.44376 82.04 15.8304L81.2106 16.4065Z" fill="#FF3300"></path>
<path d="M81.2618 16.4681C72.2236 6.98077 60.2603 1.67309 47.5666 1.5188C35.5248 1.38165 24.2851 5.94872 15.8408 14.4005L15.1309 13.6839C23.6332 5.17383 34.9377 0.507324 47.0137 0.507324C47.2014 0.507324 47.3891 0.507324 47.5768 0.510753C60.5402 0.665046 72.7595 6.08587 81.9854 15.772L81.2618 16.4681Z" fill="#FF3300"></path>
<path d="M48.6208 98.0002C47.747 98.0002 46.8289 97.959 46.136 97.911C44.9687 97.8287 43.3406 97.6573 41.1596 97.383C39.8728 97.2218 38.2754 96.8652 37.2958 96.6115C35.6882 96.1932 33.5344 95.5349 31.9337 94.9795C30.5479 94.496 27.5374 93.2342 24.9229 91.7324C23.7146 91.0398 20.5062 89.1952 17.2159 86.363C15.5605 84.9401 13.0518 82.6497 10.3588 79.197C9.47133 78.0587 8.78527 77.0643 8.78186 77.0575C8.08898 76.0528 8.08898 76.0528 7.04112 74.3728C6.22878 73.0733 5.37207 71.3692 5.00685 70.6389C4.46074 69.5485 3.88732 68.2593 3.53917 67.3336C3.27977 66.6478 3.01012 65.8867 2.75413 65.1255C2.37868 64.1174 2.0476 63.0888 1.76089 62.0431C1.3752 60.5276 0.86663 58.532 0.658424 57.0062C0.463872 55.5868 0.248839 53.965 0.14303 52.7203C0.102071 52.2232 -0.0310436 50.4985 -0.000324755 49.1476L0.00650166 48.935C0.0372205 47.6904 0.0747658 46.1406 0.163509 44.9508C0.242013 43.9051 0.412673 42.4719 0.6004 41.2958C1.29328 36.9002 2.41281 33.7252 2.45719 33.5949C2.78827 32.6657 3.40264 30.9342 3.91804 29.7135C4.29349 28.8255 4.90446 27.5329 5.54955 26.2642C6.50866 24.3819 7.97634 21.9955 9.20851 20.3291C10.782 18.1999 12.7958 15.8272 14.342 14.2911C16.68 11.9664 17.5982 11.2704 20.6428 8.96286C21.7043 8.15711 23.1993 7.25535 24.2335 6.64504C25.1755 6.08958 26.5032 5.37984 27.6125 4.84152C28.6877 4.32036 30.2134 3.66204 31.5002 3.1683C32.2306 2.88715 33.118 2.60256 33.9782 2.32484C34.3536 2.20483 34.712 2.08825 35.0397 1.97853C36.2445 1.57394 37.8351 1.2345 39.2311 0.946486C39.9854 0.792193 40.8967 0.655043 41.7808 0.52818C42.1528 0.473321 42.5146 0.42189 42.8389 0.370459C44.1802 0.157877 45.9517 0.0790166 47.3443 0.0310143C48.5389 -0.0101304 49.9383 0.000155748 50.9043 0.0584442C52.3037 0.140734 54.2424 0.325885 55.8466 0.52818C58.1232 0.816194 60.1541 1.35793 62.3044 1.93053C63.9086 2.35569 66.0384 3.11002 67.6017 3.79919C69.0489 4.44036 70.1275 4.94096 70.8988 5.33869C71.875 5.83929 73.1755 6.57303 74.138 7.15935C75.138 7.76966 76.2815 8.52398 77.0529 9.07944C78.2031 9.91262 78.5922 10.1903 80.3159 11.6236C80.5036 11.7813 81.4866 12.6145 82.7768 13.8694C83.7598 14.8294 84.5824 15.7277 84.9749 16.1632C85.4528 16.6878 86.5143 17.929 87.1833 18.8033C88.2618 20.2057 88.4564 20.4937 89.5315 22.088C90.3405 23.2881 91.7706 25.7499 92.5454 27.3889C93.1393 28.6472 94.136 30.7559 94.9517 33.2486C95.8357 35.9607 96.4467 38.3437 96.7676 40.3358C97.0918 42.3518 97.457 44.632 97.5287 47.903C97.6038 51.4894 97.2864 54.3215 97.0918 55.6896C96.8904 57.0885 96.5218 59.6944 95.4159 63.3597C94.7503 65.5712 93.5523 68.4102 92.6649 70.3989C92.2553 71.3143 91.6034 72.5315 90.6613 74.1225C90.2517 74.8185 89.7125 75.6208 89.1936 76.3957C88.965 76.7352 88.7465 77.0643 88.552 77.3626C87.8215 78.4873 86.7054 79.8587 85.9067 80.7708L85.7599 80.9388C84.8008 82.0326 83.6062 83.3938 82.5618 84.3332C82.3263 84.5458 82.0703 84.779 81.8074 85.019C81.0941 85.6739 80.2818 86.4145 79.6025 86.9699C78.6605 87.738 77.2747 88.842 76.1415 89.5621L75.3633 90.0627C74.5544 90.5838 73.6362 91.177 72.8785 91.6056C71.7078 92.2673 70.1786 93.0559 69.0694 93.5634C65.1612 95.36 61.7822 96.2309 61.4135 96.3269C59.113 96.9064 56.0958 97.4207 54.2117 97.6881C53.1877 97.8322 51.9009 97.887 50.7643 97.935C50.3923 97.9522 50.0305 97.9659 49.6994 97.983C49.3649 97.9899 48.9963 98.0002 48.6208 98.0002ZM10.1437 77.2289C10.41 77.5958 10.7615 78.0689 11.154 78.573C13.7925 81.9537 16.2534 84.1995 17.8746 85.595C21.0933 88.3654 24.2403 90.1724 25.4247 90.8547C27.9812 92.3222 30.9165 93.5565 32.2647 94.0263C33.8416 94.5749 35.9647 95.2195 37.5484 95.6343C38.7976 95.9601 40.2653 96.2549 41.2824 96.3818C43.4464 96.6527 45.054 96.8241 46.2043 96.903C47.1668 96.9681 48.5765 97.023 49.6482 96.9647C49.9827 96.9475 50.3445 96.9338 50.7234 96.9167C51.8361 96.8687 53.099 96.8173 54.0717 96.6801C55.9319 96.4161 58.9048 95.9086 61.1678 95.3395C61.5296 95.2469 64.8233 94.3966 68.6529 92.6376C69.7383 92.1405 71.2402 91.369 72.387 90.7175C73.1208 90.3027 74.0253 89.7198 74.824 89.2055L75.6091 88.7014C76.7013 88.0088 78.0529 86.9288 78.9745 86.1779C79.6332 85.643 80.4319 84.9093 81.1351 84.2647C81.4013 84.0212 81.6573 83.7846 81.8962 83.5721C82.8963 82.6703 84.0704 81.3365 85.0125 80.2599L85.1592 80.0919C85.9374 79.2073 87.016 77.8769 87.7191 76.7969C87.9171 76.4952 88.139 76.1626 88.3676 75.8197C88.8796 75.0551 89.4087 74.2665 89.8046 73.5945C90.7262 72.0378 91.361 70.8549 91.7535 69.9737C92.6307 68.009 93.8117 65.2146 94.4602 63.0545C95.5422 59.4612 95.9074 56.9068 96.102 55.5319C96.2931 54.1947 96.6037 51.4243 96.5286 47.9098C96.4604 44.7108 96.102 42.4684 95.7845 40.4866C95.4739 38.5425 94.8766 36.211 94.0063 33.5503C93.211 31.1159 92.2348 29.0449 91.6477 27.8072C90.8934 26.2094 89.4974 23.8093 88.7192 22.6538C87.6475 21.0663 87.4563 20.7851 86.3948 19.4033C85.7395 18.553 84.7053 17.3427 84.2411 16.8284C83.852 16.3998 83.0464 15.5152 82.0839 14.5757C80.821 13.3448 79.8619 12.5356 79.6844 12.3847C77.9847 10.9721 77.6058 10.6978 76.4726 9.87833C75.7217 9.33659 74.6056 8.59941 73.626 8.00282C72.684 7.42679 71.4074 6.71018 70.4517 6.21987C69.6974 5.83243 68.6359 5.33869 67.2057 4.70438C65.6869 4.03234 63.6151 3.30202 62.0552 2.88715C59.939 2.32484 57.9389 1.79338 55.7271 1.51223C54.1434 1.30993 52.2286 1.12821 50.8497 1.04592C49.911 0.991059 48.5492 0.980773 47.3818 1.01849C46.0166 1.06306 44.2826 1.14192 42.9959 1.34765C42.6682 1.39908 42.303 1.45394 41.9275 1.5088C41.0606 1.63566 40.1629 1.76938 39.4359 1.91682C38.4495 2.11911 36.6097 2.4997 35.3605 2.91801C35.0294 3.02773 34.6642 3.1443 34.2888 3.26774C33.4423 3.53861 32.5685 3.81976 31.8654 4.09063C30.6025 4.57751 29.1041 5.22211 28.0528 5.73299C26.9811 6.25416 25.6499 6.96048 24.7454 7.49536C23.7351 8.09196 22.2709 8.97657 21.2537 9.74804C18.2501 12.0247 17.3422 12.7139 15.0519 14.9906C13.5399 16.4958 11.5636 18.817 10.0174 20.912C8.81599 22.5372 7.38244 24.8653 6.44723 26.7031C5.81237 27.9546 5.21164 29.2198 4.84643 30.0873C4.34128 31.2839 3.73373 32.9948 3.40606 33.9137C3.36169 34.044 2.27287 37.1299 1.59364 41.4329C1.41616 42.5644 1.2455 44.0011 1.16699 45.0057C1.07825 46.1715 1.0407 47.7041 1.0134 48.9384L1.00657 49.1544C0.986092 50.0322 1.03729 51.3283 1.1431 52.6175C1.25574 53.941 1.5049 55.7616 1.65508 56.852C1.85646 58.3195 2.35479 60.2841 2.72 61.7207C2.72683 61.7413 2.73024 61.7619 2.73707 61.7825C2.97941 62.5745 3.3139 63.6271 3.6757 64.6935C6.06495 71.1532 10.2803 76.8277 16.0042 81.2782C16.0793 81.3365 16.1544 81.3948 16.2295 81.4531L15.6185 82.2554C13.615 80.7296 11.7855 79.0427 10.1437 77.2289Z" fill="#FF3300"></path>
</svg>